<svg xmlns="http://www.w3.org/2000/svg" viewBox="0 0 256 256"><circle cx="128" cy="128" r="128" fill="#FFFFFF"/><g transform="translate(54 54) scale(.578)" fill="#F5C24C" color="#F5C24C"><g transform="matrix(.78 0 0 .78 28 52)"><path d="M100,36a28,28,0,1,1,28,28A28,28,0,0,1,100,36ZM227.6,92.57A15.7,15.7,0,0,0,212,80H44a16,16,0,0,0-6.7,30.53l.06,0,53.89,23.73-21.92,83.3a16,16,0,0,0,7.9,20.91A15.83,15.83,0,0,0,84,240a16,16,0,0,0,14.44-9.06L128,180l29.58,51a16,16,0,0,0,29.07-13.35l-21.92-83.3,54-23.76A15.7,15.7,0,0,0,227.6,92.57Z"/></g><rect x="68" y="14" width="120" height="32" rx="6"/><path d="M80 30H176" stroke="#FFFFFF" stroke-width="6" stroke-linecap="round"/></g></svg>